<svg width="1000" height="1000" viewBox="0 0 1000 1000" fill="none" xmlns="http://www.w3.org/2000/svg">
<path d="M0 500H500C500 776.142 276.142 1000 0 1000V500Z" fill="#915BF1"/>
<path d="M0 135.593C0 60.7071 60.7072 0 135.593 0H500C500 276.142 276.142 500 0 500V135.593Z" fill="#915BF1"/>
<path d="M500 500C776.142 500 1000 723.858 1000 1000H635.593C560.707 1000 500 939.293 500 864.407V500Z" fill="#915BF1"/>
<path d="M500 0H750C888.071 0 1000 111.929 1000 250C1000 388.071 888.071 500 750 500H500V0Z" fill="#915BF1"/>
</svg>
